<svg width="17" height="17" viewBox="0 0 17 17" fill="none" xmlns="http://www.w3.org/2000/svg">
<path d="M2.75 4.33301H4.08333H14.75" stroke="#6C6C6C" stroke-linecap="round" stroke-linejoin="round"/>
<path d="M6.08301 4.33305V2.99972C6.08301 2.64609 6.22348 2.30695 6.47353 2.05691C6.72358 1.80686 7.06272 1.66638 7.41634 1.66638H10.083C10.4366 1.66638 10.7758 1.80686 11.0258 2.05691C11.2759 2.30695 11.4163 2.64609 11.4163 2.99972V4.33305M13.4163 4.33305V13.6664C13.4163 14.02 13.2759 14.3591 13.0258 14.6092C12.7758 14.8592 12.4366 14.9997 12.083 14.9997H5.41634C5.06272 14.9997 4.72358 14.8592 4.47353 14.6092C4.22348 14.3591 4.08301 14.02 4.08301 13.6664V4.33305H13.4163Z" stroke="#6C6C6C" stroke-linecap="round" stroke-linejoin="round"/>
<path d="M7.41699 7.66638V11.6664" stroke="#6C6C6C" stroke-linecap="round" stroke-linejoin="round"/>
<path d="M10.083 7.66638V11.6664" stroke="#6C6C6C" stroke-linecap="round" stroke-linejoin="round"/>
</svg>
